<?xml version="1.0" standalone="no"?>
<!DOCTYPE svg PUBLIC "-//W3C//DTD SVG 20010904//EN"
 "http://www.w3.org/TR/2001/REC-SVG-20010904/DTD/svg10.dtd">
<svg version="1.0" xmlns="http://www.w3.org/2000/svg"
 width="300.000000pt" height="300.000000pt" viewBox="0 0 300.000000 300.000000"
 preserveAspectRatio="xMidYMid meet">
<metadata>
Created by potrace 1.10, written by Peter Selinger 2001-2011
</metadata>
<g transform="translate(0.000000,300.000000) scale(0.100000,-0.100000)"
fill="#000000" stroke="none">
<path d="M1907 2263 c-38 -59 -41 -68 -25 -71 22 -4 22 -11 4 -79 -44 -166
-143 -295 -304 -397 -42 -27 -68 -45 -57 -40 11 4 32 8 47 8 14 1 25 3 23 6
-2 3 9 11 25 18 15 7 42 26 59 42 17 17 31 27 31 23 0 -5 5 0 11 10 6 9 15 14
21 11 6 -4 8 -2 4 4 -3 6 1 15 10 20 9 5 15 11 13 13 -5 8 26 49 38 49 7 0 10
6 7 14 -3 7 2 16 10 19 9 4 16 14 16 23 0 21 24 12 28 -10 2 -10 -6 -24 -17
-33 -12 -8 -18 -20 -15 -26 4 -7 4 -9 -1 -5 -8 8 -45 -33 -45 -50 0 -12 -35
-43 -42 -37 -3 3 -11 -3 -19 -12 -13 -17 -13 -17 6 -3 19 14 19 14 6 -2 -7
-10 -21 -18 -31 -18 -19 0 -53 -33 -45 -43 3 -4 2 -5 -2 -2 -3 3 -13 -1 -22
-9 -19 -17 -111 -58 -111 -49 0 3 -10 -1 -22 -9 -68 -42 -280 -56 -336 -21
-38 23 -72 55 -84 76 -9 17 -2 18 103 16 63 -1 126 -7 142 -14 37 -15 78 2 96
41 15 34 -4 82 -36 90 -13 4 -20 10 -17 15 8 14 -3 11 -46 -11 -32 -17 -59
-20 -155 -20 -93 0 -115 3 -115 14 0 8 -3 21 -6 29 -8 22 14 26 191 32 88 3
181 8 207 10 37 4 49 1 57 -12 6 -12 21 -17 46 -16 49 1 75 30 75 82 0 36 -3
41 -42 60 -23 11 -45 17 -48 13 -6 -10 -38 -24 -65 -30 -29 -5 -312 -10 -297
-5 6 3 12 11 12 18 0 15 22 25 56 25 13 0 33 9 44 20 28 28 100 33 137 9 36
-24 54 -24 84 2 17 15 24 32 25 61 1 34 -3 42 -30 59 -22 14 -41 18 -65 14
-31 -6 -33 -5 -21 10 25 30 82 46 163 46 66 1 84 -3 122 -26 25 -14 45 -30 45
-35 0 -5 9 -11 19 -15 11 -3 27 -25 37 -51 16 -41 16 -46 0 -62 -9 -10 -16
-24 -16 -30 0 -37 -128 -202 -157 -202 -8 0 -12 -4 -9 -9 6 -9 -67 -74 -75
-68 -2 2 -15 -7 -28 -20 -37 -35 -10 -27 55 16 117 78 205 182 251 293 30 74
23 97 -44 159 -126 116 -310 112 -431 -9 -38 -38 -46 -41 -104 -45 -40 -2 -22
-4 50 -5 101 -2 114 0 133 19 31 31 89 8 89 -37 0 -46 -62 -73 -90 -39 -9 11
-32 15 -81 15 -62 0 -68 -2 -71 -22 -2 -13 -9 -22 -15 -21 -27 5 -116 -30
-149 -59 -30 -26 -47 -33 -95 -36 -32 -2 -59 -9 -59 -14 0 -6 10 -7 23 -4 12
4 135 10 272 13 226 6 252 8 276 26 30 22 60 13 79 -24 26 -48 -56 -95 -91
-53 -12 15 -32 16 -159 10 -80 -3 -184 -6 -232 -6 l-86 0 -10 -47 c-6 -26 -9
-50 -6 -54 2 -4 -47 -11 -109 -16 -106 -10 -99 -10 136 -11 239 -2 249 -1 277
19 28 21 30 21 54 5 32 -21 36 -70 7 -86 -28 -14 -57 -12 -71 5 -10 12 -40 15
-146 15 -151 0 -153 -1 -104 -68 78 -108 208 -136 386 -81 141 43 262 115 338
199 89 99 168 254 182 358 6 47 9 52 31 52 25 0 25 1 9 25 -10 14 -28 46 -41
71 l-24 45 -44 -68z m60 -76 c-18 -57 -51 -47 -53 16 0 23 3 33 8 25 6 -10 8
-9 8 4 0 23 23 28 37 8 8 -12 8 -25 0 -53z m-26 -52 c5 4 6 -8 2 -27 -3 -18
-12 -36 -19 -41 -7 -4 -11 -14 -8 -22 7 -16 -26 -105 -39 -105 -4 0 -6 17 -3
38 2 20 9 36 15 35 7 -2 10 13 9 39 -1 24 3 43 10 46 7 2 12 16 13 30 0 15 3
21 6 14 2 -6 9 -10 14 -7z"/>
<path d="M1445 2120 c-4 -7 -3 -16 3 -22 14 -14 45 -2 40 15 -6 16 -34 21 -43
7z"/>
<path d="M2080 2100 c0 -13 7 -20 20 -20 13 0 20 7 20 20 0 13 -7 20 -20 20
-13 0 -20 -7 -20 -20z"/>
<path d="M2134 2066 c-3 -8 -4 -25 -2 -38 2 -19 9 -23 38 -23 33 0 35 2 35 35
0 32 -3 35 -33 38 -21 2 -34 -2 -38 -12z"/>
<path d="M2023 2003 c-8 -3 -13 -24 -13 -58 l0 -52 50 -7 c28 -4 55 -4 60 -1
15 9 12 105 -2 109 -25 8 -83 13 -95 9z m75 -46 c16 -19 -11 -54 -42 -54 -17
0 -25 6 -29 23 -2 13 1 28 6 33 15 15 52 14 65 -2z"/>
<path d="M1925 1911 c-21 -39 -64 -100 -97 -136 -91 -99 -159 -143 -328 -212
-34 -14 393 -5 439 9 46 14 117 87 131 135 6 21 10 63 8 93 -3 54 -4 55 -35
58 -41 4 -51 17 -55 71 -2 25 -8 46 -15 48 -6 2 -28 -28 -48 -66z m52 -60 c10
-10 28 -22 41 -25 18 -6 22 -15 22 -48 0 -61 -36 -124 -86 -152 -36 -20 -57
-24 -150 -25 l-109 -1 55 47 c75 66 143 139 172 184 27 44 31 46 55 20z"/>
<path d="M1542 1933 c2 -10 10 -18 18 -18 8 0 16 8 18 18 2 12 -3 17 -18 17
-15 0 -20 -5 -18 -17z"/>
<path d="M1342 1753 c4 -21 33 -25 33 -3 0 8 -8 16 -18 18 -14 3 -18 -1 -15
-15z"/>
<path d="M1755 1352 c-38 -7 -45 -30 -45 -157 0 -81 4 -125 12 -133 7 -7 39
-12 73 -12 71 0 85 10 85 62 0 36 -2 38 -30 38 -27 0 -30 -3 -30 -30 0 -25 -4
-30 -25 -30 l-25 0 0 110 0 110 25 0 c20 0 25 -5 25 -24 0 -19 5 -23 30 -22
27 1 30 4 30 32 0 17 -6 37 -14 43 -15 12 -75 19 -111 13z"/>
<path d="M732 1338 c-17 -17 -17 -259 0 -276 7 -7 39 -12 75 -12 76 0 83 9 83
104 l0 66 -40 0 c-36 0 -40 -2 -40 -25 0 -14 5 -25 10 -25 6 0 10 -18 10 -40
0 -36 -2 -40 -25 -40 l-25 0 0 110 0 110 25 0 c20 0 25 -5 25 -24 0 -19 5 -23
30 -22 24 1 30 5 30 24 0 50 -16 62 -83 62 -36 0 -68 -5 -75 -12z"/>
<path d="M915 1200 l0 -150 33 0 32 0 0 60 c0 57 1 60 25 60 24 0 25 -3 25
-60 l0 -60 33 0 32 0 0 150 0 150 -32 0 -33 0 0 -65 c0 -63 -1 -65 -25 -65
-24 0 -25 2 -25 65 l0 65 -32 0 -33 0 0 -150z"/>
<path d="M1140 1331 c-5 -11 -10 -70 -10 -131 0 -146 2 -150 91 -150 65 0 70
1 79 26 6 14 10 70 10 124 0 54 -4 110 -10 124 -9 25 -14 26 -79 26 -59 0 -72
-3 -81 -19z m100 -131 l0 -110 -25 0 -25 0 0 110 0 110 25 0 25 0 0 -110z"/>
<path d="M1349 1323 c-6 -16 -9 -50 -6 -77 5 -57 24 -76 74 -76 32 0 33 -1 33
-41 0 -36 -2 -40 -22 -37 -15 2 -23 10 -23 23 0 15 -8 21 -32 23 -27 3 -33 0
-33 -17 0 -11 4 -31 10 -45 9 -24 14 -26 73 -26 36 0 68 5 75 12 7 7 12 40 12
78 0 38 -5 71 -12 78 -7 7 -32 12 -56 12 l-43 0 3 37 c3 44 35 60 45 24 8 -30
63 -30 63 0 0 47 -17 59 -86 59 -61 0 -65 -1 -75 -27z"/>
<path d="M1530 1321 c0 -25 3 -28 26 -23 l26 5 -4 -127 -3 -126 33 0 32 0 0
126 0 126 25 -6 c23 -6 25 -3 25 24 l0 30 -80 0 -80 0 0 -29z"/>
<path d="M1922 1338 c-8 -8 -12 -56 -12 -150 l0 -138 33 0 32 0 -3 50 c-4 48
-3 50 22 50 25 0 26 -3 26 -50 0 -50 0 -50 33 -50 l32 0 -3 127 c-4 183 1 173
-80 173 -40 0 -73 -5 -80 -12z m98 -83 c0 -52 -1 -55 -25 -55 -24 0 -25 3 -25
55 0 52 1 55 25 55 24 0 25 -3 25 -55z m-52 -68 c9 -10 6 -17 -8 -30 -19 -16
-20 -16 -20 13 0 32 11 38 28 17z m92 -7 c0 -19 -20 -27 -33 -13 -8 7 11 33
24 33 5 0 9 -9 9 -20z"/>
<path d="M2120 1200 l0 -150 36 0 36 0 -4 53 c-2 29 -12 68 -21 86 -9 19 -15
36 -13 38 2 2 10 -10 17 -26 12 -27 19 -31 55 -31 55 0 69 19 69 90 0 80 -11
90 -101 90 l-74 0 0 -150z m110 60 c0 -47 -2 -50 -25 -50 -23 0 -25 3 -25 50
0 47 2 50 25 50 23 0 25 -3 25 -50z"/>
<path d="M1177 868 c1 -35 6 -64 12 -66 6 -2 11 8 11 22 0 17 5 26 16 26 10 0
14 -7 12 -22 -2 -11 3 -23 10 -25 9 -4 12 13 12 61 0 51 -3 66 -14 66 -9 0
-14 -9 -13 -24 3 -34 -17 -37 -21 -3 -2 15 -9 27 -15 27 -8 0 -11 -20 -10 -62z"/>
<path d="M1292 868 c3 -63 3 -63 33 -63 30 0 30 0 33 63 l3 62 -36 0 -36 0 3
-62z m46 0 c-4 -59 -28 -63 -28 -4 0 35 4 46 16 46 12 0 14 -9 12 -42z"/>
<path d="M1400 895 c0 -28 4 -35 20 -35 13 0 20 -7 20 -20 0 -11 -4 -20 -10
-20 -5 0 -10 5 -10 10 0 6 -7 10 -15 10 -17 0 -19 -9 -6 -28 5 -8 21 -12 37
-10 26 3 29 7 29 38 0 29 -4 36 -22 38 -13 2 -23 10 -23 18 0 10 7 13 25 8 20
-5 24 -3 19 10 -4 10 -18 16 -35 16 -26 0 -29 -3 -29 -35z"/>
<path d="M1490 920 c0 -5 5 -10 10 -10 6 0 10 -25 10 -55 0 -42 3 -55 15 -55
12 0 15 13 15 55 0 30 5 55 10 55 6 0 10 5 10 10 0 6 -16 10 -35 10 -19 0 -35
-4 -35 -10z"/>
<path d="M1590 865 c0 -48 3 -65 14 -65 10 0 14 17 14 65 0 48 -4 65 -14 65
-11 0 -14 -17 -14 -65z"/>
<path d="M1657 923 c-4 -3 -7 -33 -7 -65 0 -45 3 -58 15 -58 12 0 15 13 15 55
0 33 4 55 11 55 6 0 9 -20 8 -52 -2 -33 1 -53 9 -56 9 -3 12 15 12 62 0 66 0
66 -28 66 -16 0 -32 -3 -35 -7z"/>
<path d="M1759 921 c-2 -6 -2 -36 -1 -66 l4 -56 31 3 c28 3 32 7 35 36 3 26 0
32 -16 32 -15 0 -18 -5 -14 -25 2 -15 0 -25 -7 -25 -6 0 -11 19 -11 45 0 25 5
45 10 45 6 0 10 -4 10 -10 0 -5 7 -10 16 -10 9 0 14 7 12 18 -4 19 -64 30 -69
13z"/>
</g>
</svg>
